PathFileType	4	(X/Y/Z)	OpenSim_Sub09_EMGBaseline_Accel.trc
DataRate	CameraRate	NumFrames	NumMarkers	Units	OrigDataRate	OrigDataStartFrame	OrigNumFrames
100	100	20	8	m	100	2738	7301
Frame#	Time	torso_imu_offset_imu	pelvis_imu_offset_imu	tibia_r_imu_offset_imu	femur_r_imu_offset_imu	tibia_l_imu_offset_imu	femur_l_imu_offset_imu	toes_r_imu_offset_imu	toes_l_imu_offset_imu
				X1	Y1	Z1	X2	Y2	Z2	X3	Y3	Z3	X4	Y4	Z4	X5	Y5	Z5	X6	Y6	Z6	X7	Y7	Z7	X8		Y8	Z8	

2738	27.37000000	10.96826800	0.06612000	6.40854700	10.58125700	-1.48869400	3.66803400	6.07080200	10.26032900	-5.62160200	7.81563200	-0.45870300	1.72884000	12.76792100	-0.65265000	1.27546000	11.08407700	1.06146500	-0.63482500	9.66121600	-3.29339400	8.51046500	6.87045200	4.21151100	12.87953700
2739	27.38000000	11.07456300	-0.19600400	6.14080200	10.87798700	-2.20276300	4.09350200	6.11410100	10.74222300	-6.25652700	7.39709100	-2.06001900	0.92601900	12.99600500	-1.05811800	0.36527900	11.41477900	0.88966200	0.02696300	5.99184400	-4.10376700	7.94425800	5.88680900	5.28861200	12.80492300
2740	27.39000000	10.88607800	-0.54874500	6.20274200	10.63492600	-2.30961400	4.42991000	6.52044700	9.57190400	-5.11182100	7.85662300	-2.61332400	-1.05876100	12.82866600	-1.38155000	-0.48230600	11.04080800	0.74881100	0.53982900	8.22466800	-3.12328800	7.66070700	7.36884600	5.23907200	12.68568400
2741	27.40000000	10.34344400	-0.75706600	6.04021800	10.53511500	-2.38302600	4.65373100	7.90603300	8.18752200	-3.45312000	9.42456200	-0.93517200	-0.72644200	12.35242200	-1.64894500	-1.48244800	10.46096300	0.61313400	0.86397800	9.42548500	-1.04481600	8.66211100	9.66094600	4.61443600	13.22163800
2742	27.41000000	10.12897400	-0.92859500	5.82779100	10.63675200	-2.42197000	4.76177900	9.53567200	8.54780300	-1.46155700	10.33084200	0.84696600	-0.28607800	11.62115600	-2.60911200	-2.16308100	10.13310100	0.09785000	0.51911900	7.78319400	-0.86342800	9.29167000	11.65582700	5.44107200	13.69624000
2743	27.42000000	10.06888900	-1.17185500	5.77280600	10.91580000	-2.45083400	4.67555300	10.40475900	9.12248400	-0.34271600	10.58803300	1.63827200	-0.16535900	11.07481300	-3.03732400	-1.83651100	10.11294600	-0.45710200	-0.05894100	6.55984200	-1.32858100	9.21370500	11.05949400	5.89085600	12.95797000
2744	27.43000000	9.84475100	-1.39696600	5.78529400	10.82458000	-2.18317300	4.43365300	10.77044300	8.84378700	0.35892500	11.29903400	1.26692900	0.08074400	10.54981000	-3.73061800	-1.24481800	10.51468500	-0.93296800	-0.22628900	5.83752100	-1.93143200	8.85498000	11.43550000	5.09454700	12.78589700
2745	27.44000000	9.49018900	-1.52215100	5.68743400	10.44550400	-1.61716200	4.29823800	10.84680100	7.42716300	0.49400800	11.47252600	0.11230400	0.37248700	9.75239900	-4.43197500	-0.61086200	10.93550800	-1.19280300	-0.21810700	5.67824500	-2.51642600	8.60190000	10.65613300	3.87370300	11.81369700
2746	27.45000000	9.26658000	-1.65980800	5.57036000	9.95145900	-0.90693600	4.14311000	10.62104000	5.36446800	0.25708900	11.02137500	-1.34354100	-0.10157200	8.76193700	-5.74171200	0.22731800	11.04240700	-1.27802600	-0.15855700	5.70464500	-2.42752200	8.32621100	11.12769500	4.54447200	10.80200200
2747	27.46000000	9.02320300	-1.73916800	5.49904100	9.45720600	-0.35513300	4.08241700	10.30756700	3.46294700	0.36688300	10.26904200	-2.25628800	-0.57471500	7.47231400	-7.47509400	0.80092800	10.89061400	-1.09785500	-0.12843400	5.31188500	-2.60820800	8.35639100	7.68774700	4.83602800	9.72139300
2748	27.47000000	8.79926200	-1.69269100	5.37586600	9.06670700	0.08342600	3.93747800	10.00464300	1.90084200	0.39681300	9.56356800	-2.12660200	-0.39328100	6.21354100	-9.13278800	0.49103900	10.73458200	-0.67403700	-0.06059000	5.19660500	-2.85057100	8.03752600	2.69771800	3.84508300	9.03592300
2749	27.48000000	8.48679800	-1.56997500	5.28092600	8.80674000	0.49123400	3.83754100	9.99353000	0.76709500	0.23263100	9.19958200	-1.51384700	0.11893100	5.09757200	-10.52832000	-0.16773400	10.67623600	-0.10484600	0.05691400	5.13223800	-2.65172900	8.18482500	-0.85972800	1.50243800	11.97714600
2750	27.49000000	8.30440300	-1.38950500	5.25106200	8.52669400	0.85825900	3.78648500	10.16516800	-0.17008800	-0.22995000	8.93154400	-0.86168200	0.49326100	4.07859500	-11.41385400	-1.21974300	10.62836000	0.51166600	0.22190500	5.15006400	-2.73003400	7.93935100	18.94777300	4.57218000	20.20258500
2751	27.50000000	8.26412800	-1.18900300	5.19112100	8.36501100	0.96542500	3.70542800	10.03586600	-0.78529800	-0.61864000	8.45141000	-0.43778100	0.52346700	3.18871600	-11.70012500	-1.81857200	10.87153700	1.04717500	0.52850700	5.25585400	-3.04434400	7.74027700	9.72710799	6.78486400	14.66836400
2752	27.51000000	8.47668000	-1.07409500	5.28829500	8.32316300	0.84651000	3.60292600	9.61778500	-1.01818100	-1.30412800	7.99794100	-0.13651500	0.35257500	2.30745700	-9.60784800	-1.76479200	10.85967300	1.52762100	0.68213300	5.14714300	-3.10236900	7.98311700	-5.06575800	10.07632800	8.77091800
2753	27.52000000	8.73663800	-0.93483900	5.43531100	8.60268500	0.65068100	3.35442400	9.49232900	-0.87037200	-1.72671700	8.00406800	0.12633700	0.20662100	2.72861800	-6.92908300	-0.60221600	10.52376700	2.01988800	0.73042900	5.44214000	-3.07543300	7.85130600	-4.18738400	8.71574100	8.92091600
2754	27.53000000	8.62984400	-0.81914100	5.69304800	8.86795300	0.51341600	3.21625600	9.85206500	-0.39333300	-1.24159000	8.41537000	0.48602100	0.13808400	3.62680500	-5.17079700	1.09024900	9.91433700	2.38679300	0.64228300	5.42542900	-3.22063600	7.66164900	-0.08432200	5.34229700	9.78572800
2755	27.54000000	8.41348700	-0.71844100	5.73681400	9.04457500	0.39945700	3.08541400	10.23278600	0.32399600	-0.11780400	8.92354800	0.91456800	0.17309800	3.68304600	-4.37646200	2.23457000	9.24269600	2.65703500	0.66038100	5.63279000	-2.89934100	7.96649100	0.59679000	4.05724000	10.12701300
2756	27.55000000	8.36883200	-0.74802100	5.78232600	9.05989200	0.43474500	3.07868500	10.32507500	1.19781500	0.40112500	9.40899300	1.11288300	0.25135300	3.00205000	-4.01213000	3.00349700	8.78639300	2.52770100	0.78830800	5.36096300	-2.73663000	8.14931800	1.05980800	4.16042700	10.67948200
2757	27.56000000	8.42085600	-0.84462800	5.77678000	8.94452200	0.54078900	2.98384700	10.15002200	2.12098800	0.36694300	9.62679900	0.90453300	0.32869700	2.48043900	-3.59428100	3.39651600	8.70466500	2.31938600	0.93148500	5.27245700	-2.58713100	8.09667800	0.56214800	4.67007700	10.63253700
